<mxfile host="www.draw.io" modified="2020-02-19T04:37:52.846Z" agent="Mozilla/5.0 (Macintosh; Intel Mac OS X 10_15_1) AppleWebKit/537.36 (KHTML, like Gecko) Chrome/79.0.3945.130 Safari/537.36" etag="Jpce_CZnkbHl6lfS3ABr" version="12.7.1" type="github">
  <diagram id="qraUycZ-T-Vl92LA1NdP" name="第 1 页">
    <mxGraphModel dx="772" dy="500" grid="1" gridSize="10" guides="1" tooltips="1" connect="1" arrows="1" fold="1" page="1" pageScale="1" pageWidth="827" pageHeight="1169" math="0" shadow="0">
      <root>
        <mxCell id="0" />
        <mxCell id="1" parent="0" />
        <mxCell id="N7uNGJhakCuLGw01cvrU-18" style="edgeStyle=none;rounded=0;orthogonalLoop=1;jettySize=auto;html=1;exitX=1;exitY=0;exitDx=0;exitDy=0;entryX=0.5;entryY=1;entryDx=0;entryDy=0;" edge="1" parent="1" source="N7uNGJhakCuLGw01cvrU-1" target="N7uNGJhakCuLGw01cvrU-3">
          <mxGeometry relative="1" as="geometry" />
        </mxCell>
        <mxCell id="N7uNGJhakCuLGw01cvrU-19" value="④推荐者&lt;br&gt;浏览职位" style="text;html=1;align=center;verticalAlign=middle;resizable=0;points=[];labelBackgroundColor=#ffffff;" vertex="1" connectable="0" parent="N7uNGJhakCuLGw01cvrU-18">
          <mxGeometry x="-0.1012" y="-2" relative="1" as="geometry">
            <mxPoint as="offset" />
          </mxGeometry>
        </mxCell>
        <mxCell id="N7uNGJhakCuLGw01cvrU-34" style="edgeStyle=none;rounded=0;orthogonalLoop=1;jettySize=auto;html=1;exitX=0.5;exitY=0;exitDx=0;exitDy=0;entryX=0;entryY=1;entryDx=0;entryDy=0;" edge="1" parent="1" source="N7uNGJhakCuLGw01cvrU-1" target="N7uNGJhakCuLGw01cvrU-3">
          <mxGeometry relative="1" as="geometry" />
        </mxCell>
        <mxCell id="N7uNGJhakCuLGw01cvrU-35" value="⑧反馈入职信息" style="text;html=1;align=center;verticalAlign=middle;resizable=0;points=[];labelBackgroundColor=#ffffff;" vertex="1" connectable="0" parent="N7uNGJhakCuLGw01cvrU-34">
          <mxGeometry x="0.2814" y="-1" relative="1" as="geometry">
            <mxPoint y="1" as="offset" />
          </mxGeometry>
        </mxCell>
        <mxCell id="N7uNGJhakCuLGw01cvrU-38" style="edgeStyle=none;rounded=0;orthogonalLoop=1;jettySize=auto;html=1;exitX=0;exitY=0.5;exitDx=0;exitDy=0;entryX=0.675;entryY=0.988;entryDx=0;entryDy=0;entryPerimeter=0;" edge="1" parent="1" source="N7uNGJhakCuLGw01cvrU-1" target="N7uNGJhakCuLGw01cvrU-4">
          <mxGeometry relative="1" as="geometry" />
        </mxCell>
        <mxCell id="N7uNGJhakCuLGw01cvrU-39" value="⑫提取佣金" style="text;html=1;align=center;verticalAlign=middle;resizable=0;points=[];labelBackgroundColor=#ffffff;" vertex="1" connectable="0" parent="N7uNGJhakCuLGw01cvrU-38">
          <mxGeometry x="-0.079" y="-2" relative="1" as="geometry">
            <mxPoint as="offset" />
          </mxGeometry>
        </mxCell>
        <mxCell id="N7uNGJhakCuLGw01cvrU-1" value="推荐者" style="ellipse;whiteSpace=wrap;html=1;aspect=fixed;fillColor=#1ba1e2;strokeColor=#006EAF;fontColor=#ffffff;" vertex="1" parent="1">
          <mxGeometry x="450" y="240" width="80" height="80" as="geometry" />
        </mxCell>
        <mxCell id="N7uNGJhakCuLGw01cvrU-13" style="rounded=0;orthogonalLoop=1;jettySize=auto;html=1;entryX=0;entryY=0.5;entryDx=0;entryDy=0;" edge="1" parent="1" source="N7uNGJhakCuLGw01cvrU-2" target="N7uNGJhakCuLGw01cvrU-4">
          <mxGeometry relative="1" as="geometry" />
        </mxCell>
        <mxCell id="N7uNGJhakCuLGw01cvrU-14" value="①发布职位" style="text;html=1;align=center;verticalAlign=middle;resizable=0;points=[];labelBackgroundColor=#ffffff;" vertex="1" connectable="0" parent="N7uNGJhakCuLGw01cvrU-13">
          <mxGeometry x="-0.0942" y="1" relative="1" as="geometry">
            <mxPoint as="offset" />
          </mxGeometry>
        </mxCell>
        <mxCell id="N7uNGJhakCuLGw01cvrU-2" value="职位发布者" style="ellipse;whiteSpace=wrap;html=1;aspect=fixed;fillColor=#1ba1e2;strokeColor=#006EAF;fontColor=#ffffff;" vertex="1" parent="1">
          <mxGeometry x="70" y="180" width="80" height="80" as="geometry" />
        </mxCell>
        <mxCell id="N7uNGJhakCuLGw01cvrU-20" style="edgeStyle=none;rounded=0;orthogonalLoop=1;jettySize=auto;html=1;entryX=0.5;entryY=0;entryDx=0;entryDy=0;exitX=0.5;exitY=1;exitDx=0;exitDy=0;" edge="1" parent="1" source="N7uNGJhakCuLGw01cvrU-3" target="N7uNGJhakCuLGw01cvrU-10">
          <mxGeometry relative="1" as="geometry" />
        </mxCell>
        <mxCell id="N7uNGJhakCuLGw01cvrU-21" value="⑤推荐者&lt;br&gt;推荐职位" style="text;html=1;align=center;verticalAlign=middle;resizable=0;points=[];labelBackgroundColor=#ffffff;" vertex="1" connectable="0" parent="N7uNGJhakCuLGw01cvrU-20">
          <mxGeometry x="-0.0362" y="1" relative="1" as="geometry">
            <mxPoint as="offset" />
          </mxGeometry>
        </mxCell>
        <mxCell id="N7uNGJhakCuLGw01cvrU-36" value="⑨显示入职反馈信息" style="edgeStyle=none;rounded=0;orthogonalLoop=1;jettySize=auto;html=1;exitX=0;exitY=1;exitDx=0;exitDy=0;entryX=1;entryY=1;entryDx=0;entryDy=0;" edge="1" parent="1" source="N7uNGJhakCuLGw01cvrU-3" target="N7uNGJhakCuLGw01cvrU-4">
          <mxGeometry relative="1" as="geometry" />
        </mxCell>
        <mxCell id="N7uNGJhakCuLGw01cvrU-3" value="小程序、网站" style="ellipse;whiteSpace=wrap;html=1;fillColor=#008a00;strokeColor=#005700;fontColor=#ffffff;" vertex="1" parent="1">
          <mxGeometry x="530" y="60" width="120" height="80" as="geometry" />
        </mxCell>
        <mxCell id="N7uNGJhakCuLGw01cvrU-16" style="edgeStyle=none;rounded=0;orthogonalLoop=1;jettySize=auto;html=1;entryX=0;entryY=0.5;entryDx=0;entryDy=0;" edge="1" parent="1" source="N7uNGJhakCuLGw01cvrU-4" target="N7uNGJhakCuLGw01cvrU-3">
          <mxGeometry relative="1" as="geometry" />
        </mxCell>
        <mxCell id="N7uNGJhakCuLGw01cvrU-17" value="③审核通过的职位展示" style="text;html=1;align=center;verticalAlign=middle;resizable=0;points=[];labelBackgroundColor=#ffffff;" vertex="1" connectable="0" parent="N7uNGJhakCuLGw01cvrU-16">
          <mxGeometry x="-0.15" relative="1" as="geometry">
            <mxPoint x="9" as="offset" />
          </mxGeometry>
        </mxCell>
        <mxCell id="N7uNGJhakCuLGw01cvrU-4" value="管理后台" style="ellipse;whiteSpace=wrap;html=1;fillColor=#008a00;strokeColor=#005700;fontColor=#ffffff;" vertex="1" parent="1">
          <mxGeometry x="200" y="60" width="120" height="80" as="geometry" />
        </mxCell>
        <mxCell id="N7uNGJhakCuLGw01cvrU-12" style="edgeStyle=orthogonalEdgeStyle;rounded=0;orthogonalLoop=1;jettySize=auto;html=1;entryX=0.5;entryY=1;entryDx=0;entryDy=0;" edge="1" parent="1" source="N7uNGJhakCuLGw01cvrU-8" target="N7uNGJhakCuLGw01cvrU-2">
          <mxGeometry relative="1" as="geometry" />
        </mxCell>
        <mxCell id="N7uNGJhakCuLGw01cvrU-30" style="edgeStyle=none;rounded=0;orthogonalLoop=1;jettySize=auto;html=1;entryX=0;entryY=0.5;entryDx=0;entryDy=0;" edge="1" parent="1" source="N7uNGJhakCuLGw01cvrU-8" target="N7uNGJhakCuLGw01cvrU-11">
          <mxGeometry relative="1" as="geometry" />
        </mxCell>
        <mxCell id="N7uNGJhakCuLGw01cvrU-31" value="资金往来" style="text;html=1;align=center;verticalAlign=middle;resizable=0;points=[];labelBackgroundColor=#ffffff;" vertex="1" connectable="0" parent="N7uNGJhakCuLGw01cvrU-30">
          <mxGeometry x="-0.3143" y="1" relative="1" as="geometry">
            <mxPoint x="22" y="1" as="offset" />
          </mxGeometry>
        </mxCell>
        <mxCell id="N7uNGJhakCuLGw01cvrU-8" value="职位提供方" style="shape=ext;double=1;rounded=1;whiteSpace=wrap;html=1;fillColor=#d0cee2;strokeColor=#56517e;" vertex="1" parent="1">
          <mxGeometry x="50" y="380" width="120" height="80" as="geometry" />
        </mxCell>
        <mxCell id="N7uNGJhakCuLGw01cvrU-15" value="②⑩⑬审核" style="edgeStyle=none;rounded=0;orthogonalLoop=1;jettySize=auto;html=1;entryX=0.5;entryY=1;entryDx=0;entryDy=0;exitX=0.5;exitY=0;exitDx=0;exitDy=0;" edge="1" parent="1" source="N7uNGJhakCuLGw01cvrU-9" target="N7uNGJhakCuLGw01cvrU-4">
          <mxGeometry relative="1" as="geometry" />
        </mxCell>
        <mxCell id="N7uNGJhakCuLGw01cvrU-24" style="rounded=0;orthogonalLoop=1;jettySize=auto;html=1;entryX=0.75;entryY=0;entryDx=0;entryDy=0;" edge="1" parent="1" source="N7uNGJhakCuLGw01cvrU-9" target="N7uNGJhakCuLGw01cvrU-8">
          <mxGeometry relative="1" as="geometry" />
        </mxCell>
        <mxCell id="N7uNGJhakCuLGw01cvrU-25" value="⑪&lt;br&gt;核对雇员&lt;br&gt;入职情况" style="text;html=1;align=center;verticalAlign=middle;resizable=0;points=[];labelBackgroundColor=#ffffff;" vertex="1" connectable="0" parent="N7uNGJhakCuLGw01cvrU-24">
          <mxGeometry x="-0.0934" y="-1" relative="1" as="geometry">
            <mxPoint as="offset" />
          </mxGeometry>
        </mxCell>
        <mxCell id="N7uNGJhakCuLGw01cvrU-40" value="⑭发起转账" style="edgeStyle=none;rounded=0;orthogonalLoop=1;jettySize=auto;html=1;exitX=1;exitY=0.5;exitDx=0;exitDy=0;entryX=0.5;entryY=0;entryDx=0;entryDy=0;" edge="1" parent="1" source="N7uNGJhakCuLGw01cvrU-9" target="N7uNGJhakCuLGw01cvrU-11">
          <mxGeometry relative="1" as="geometry" />
        </mxCell>
        <mxCell id="N7uNGJhakCuLGw01cvrU-9" value="运营方" style="ellipse;whiteSpace=wrap;html=1;aspect=fixed;fillColor=#1ba1e2;strokeColor=#006EAF;fontColor=#ffffff;" vertex="1" parent="1">
          <mxGeometry x="160" y="230" width="80" height="80" as="geometry" />
        </mxCell>
        <mxCell id="N7uNGJhakCuLGw01cvrU-22" style="edgeStyle=orthogonalEdgeStyle;rounded=0;orthogonalLoop=1;jettySize=auto;html=1;entryX=0.5;entryY=1;entryDx=0;entryDy=0;" edge="1" parent="1" source="N7uNGJhakCuLGw01cvrU-10" target="N7uNGJhakCuLGw01cvrU-8">
          <mxGeometry relative="1" as="geometry">
            <Array as="points">
              <mxPoint x="720" y="480" />
              <mxPoint x="110" y="480" />
            </Array>
          </mxGeometry>
        </mxCell>
        <mxCell id="N7uNGJhakCuLGw01cvrU-23" value="⑥雇员入职该公司" style="text;html=1;align=center;verticalAlign=middle;resizable=0;points=[];labelBackgroundColor=#ffffff;" vertex="1" connectable="0" parent="N7uNGJhakCuLGw01cvrU-22">
          <mxGeometry x="0.2278" y="-1" relative="1" as="geometry">
            <mxPoint as="offset" />
          </mxGeometry>
        </mxCell>
        <mxCell id="N7uNGJhakCuLGw01cvrU-33" value="⑦通知自己入职" style="edgeStyle=none;rounded=0;orthogonalLoop=1;jettySize=auto;html=1;entryX=1;entryY=0.5;entryDx=0;entryDy=0;" edge="1" parent="1" source="N7uNGJhakCuLGw01cvrU-10" target="N7uNGJhakCuLGw01cvrU-1">
          <mxGeometry relative="1" as="geometry" />
        </mxCell>
        <mxCell id="N7uNGJhakCuLGw01cvrU-10" value="准雇员" style="ellipse;whiteSpace=wrap;html=1;aspect=fixed;fillColor=#1ba1e2;strokeColor=#006EAF;fontColor=#ffffff;" vertex="1" parent="1">
          <mxGeometry x="680" y="240" width="80" height="80" as="geometry" />
        </mxCell>
        <mxCell id="N7uNGJhakCuLGw01cvrU-41" value="⑮收取佣金" style="edgeStyle=none;rounded=0;orthogonalLoop=1;jettySize=auto;html=1;entryX=0.5;entryY=1;entryDx=0;entryDy=0;" edge="1" parent="1" source="N7uNGJhakCuLGw01cvrU-11" target="N7uNGJhakCuLGw01cvrU-1">
          <mxGeometry relative="1" as="geometry" />
        </mxCell>
        <mxCell id="N7uNGJhakCuLGw01cvrU-11" value="财务系统" style="shape=ext;double=1;rounded=1;whiteSpace=wrap;html=1;fillColor=#d0cee2;strokeColor=#56517e;" vertex="1" parent="1">
          <mxGeometry x="310" y="380" width="120" height="80" as="geometry" />
        </mxCell>
        <mxCell id="N7uNGJhakCuLGw01cvrU-42" style="edgeStyle=none;rounded=0;orthogonalLoop=1;jettySize=auto;html=1;exitX=1;exitY=0;exitDx=0;exitDy=0;entryX=0.5;entryY=1;entryDx=0;entryDy=0;" edge="1" parent="1" source="N7uNGJhakCuLGw01cvrU-48" target="N7uNGJhakCuLGw01cvrU-55">
          <mxGeometry relative="1" as="geometry" />
        </mxCell>
        <mxCell id="N7uNGJhakCuLGw01cvrU-43" value="④推荐者&lt;br&gt;浏览职位" style="text;html=1;align=center;verticalAlign=middle;resizable=0;points=[];labelBackgroundColor=#ffffff;" vertex="1" connectable="0" parent="N7uNGJhakCuLGw01cvrU-42">
          <mxGeometry x="-0.1012" y="-2" relative="1" as="geometry">
            <mxPoint as="offset" />
          </mxGeometry>
        </mxCell>
        <mxCell id="N7uNGJhakCuLGw01cvrU-44" style="edgeStyle=none;rounded=0;orthogonalLoop=1;jettySize=auto;html=1;exitX=0.5;exitY=0;exitDx=0;exitDy=0;entryX=0;entryY=1;entryDx=0;entryDy=0;" edge="1" parent="1" source="N7uNGJhakCuLGw01cvrU-48" target="N7uNGJhakCuLGw01cvrU-55">
          <mxGeometry relative="1" as="geometry" />
        </mxCell>
        <mxCell id="N7uNGJhakCuLGw01cvrU-45" value="⑤推荐简历" style="text;html=1;align=center;verticalAlign=middle;resizable=0;points=[];labelBackgroundColor=#ffffff;" vertex="1" connectable="0" parent="N7uNGJhakCuLGw01cvrU-44">
          <mxGeometry x="0.2814" y="-1" relative="1" as="geometry">
            <mxPoint y="1" as="offset" />
          </mxGeometry>
        </mxCell>
        <mxCell id="N7uNGJhakCuLGw01cvrU-46" style="edgeStyle=none;rounded=0;orthogonalLoop=1;jettySize=auto;html=1;exitX=0;exitY=0.5;exitDx=0;exitDy=0;entryX=0.675;entryY=0.988;entryDx=0;entryDy=0;entryPerimeter=0;" edge="1" parent="1" source="N7uNGJhakCuLGw01cvrU-48" target="N7uNGJhakCuLGw01cvrU-58">
          <mxGeometry relative="1" as="geometry" />
        </mxCell>
        <mxCell id="N7uNGJhakCuLGw01cvrU-47" value="⑧提取佣金" style="text;html=1;align=center;verticalAlign=middle;resizable=0;points=[];labelBackgroundColor=#ffffff;" vertex="1" connectable="0" parent="N7uNGJhakCuLGw01cvrU-46">
          <mxGeometry x="-0.079" y="-2" relative="1" as="geometry">
            <mxPoint as="offset" />
          </mxGeometry>
        </mxCell>
        <mxCell id="N7uNGJhakCuLGw01cvrU-48" value="推荐者" style="ellipse;whiteSpace=wrap;html=1;aspect=fixed;fillColor=#1ba1e2;strokeColor=#006EAF;fontColor=#ffffff;" vertex="1" parent="1">
          <mxGeometry x="450" y="740" width="80" height="80" as="geometry" />
        </mxCell>
        <mxCell id="N7uNGJhakCuLGw01cvrU-49" style="rounded=0;orthogonalLoop=1;jettySize=auto;html=1;entryX=0;entryY=0.5;entryDx=0;entryDy=0;" edge="1" parent="1" source="N7uNGJhakCuLGw01cvrU-51" target="N7uNGJhakCuLGw01cvrU-58">
          <mxGeometry relative="1" as="geometry" />
        </mxCell>
        <mxCell id="N7uNGJhakCuLGw01cvrU-50" value="①发布职位" style="text;html=1;align=center;verticalAlign=middle;resizable=0;points=[];labelBackgroundColor=#ffffff;" vertex="1" connectable="0" parent="N7uNGJhakCuLGw01cvrU-49">
          <mxGeometry x="-0.0942" y="1" relative="1" as="geometry">
            <mxPoint as="offset" />
          </mxGeometry>
        </mxCell>
        <mxCell id="N7uNGJhakCuLGw01cvrU-51" value="职位发布者" style="ellipse;whiteSpace=wrap;html=1;aspect=fixed;fillColor=#1ba1e2;strokeColor=#006EAF;fontColor=#ffffff;" vertex="1" parent="1">
          <mxGeometry x="70" y="680" width="80" height="80" as="geometry" />
        </mxCell>
        <mxCell id="N7uNGJhakCuLGw01cvrU-54" value="⑥显示简历" style="edgeStyle=none;rounded=0;orthogonalLoop=1;jettySize=auto;html=1;exitX=0;exitY=1;exitDx=0;exitDy=0;entryX=1;entryY=1;entryDx=0;entryDy=0;" edge="1" parent="1" source="N7uNGJhakCuLGw01cvrU-55" target="N7uNGJhakCuLGw01cvrU-58">
          <mxGeometry relative="1" as="geometry" />
        </mxCell>
        <mxCell id="N7uNGJhakCuLGw01cvrU-55" value="小程序、网站" style="ellipse;whiteSpace=wrap;html=1;fillColor=#008a00;strokeColor=#005700;fontColor=#ffffff;" vertex="1" parent="1">
          <mxGeometry x="530" y="560" width="120" height="80" as="geometry" />
        </mxCell>
        <mxCell id="N7uNGJhakCuLGw01cvrU-56" style="edgeStyle=none;rounded=0;orthogonalLoop=1;jettySize=auto;html=1;entryX=0;entryY=0.5;entryDx=0;entryDy=0;" edge="1" parent="1" source="N7uNGJhakCuLGw01cvrU-58" target="N7uNGJhakCuLGw01cvrU-55">
          <mxGeometry relative="1" as="geometry" />
        </mxCell>
        <mxCell id="N7uNGJhakCuLGw01cvrU-57" value="③审核通过的职位展示" style="text;html=1;align=center;verticalAlign=middle;resizable=0;points=[];labelBackgroundColor=#ffffff;" vertex="1" connectable="0" parent="N7uNGJhakCuLGw01cvrU-56">
          <mxGeometry x="-0.15" relative="1" as="geometry">
            <mxPoint x="9" as="offset" />
          </mxGeometry>
        </mxCell>
        <mxCell id="N7uNGJhakCuLGw01cvrU-58" value="管理后台" style="ellipse;whiteSpace=wrap;html=1;fillColor=#008a00;strokeColor=#005700;fontColor=#ffffff;" vertex="1" parent="1">
          <mxGeometry x="200" y="560" width="120" height="80" as="geometry" />
        </mxCell>
        <mxCell id="N7uNGJhakCuLGw01cvrU-59" style="edgeStyle=orthogonalEdgeStyle;rounded=0;orthogonalLoop=1;jettySize=auto;html=1;entryX=0.5;entryY=1;entryDx=0;entryDy=0;" edge="1" parent="1" source="N7uNGJhakCuLGw01cvrU-62" target="N7uNGJhakCuLGw01cvrU-51">
          <mxGeometry relative="1" as="geometry" />
        </mxCell>
        <mxCell id="N7uNGJhakCuLGw01cvrU-60" style="edgeStyle=none;rounded=0;orthogonalLoop=1;jettySize=auto;html=1;entryX=0;entryY=0.5;entryDx=0;entryDy=0;" edge="1" parent="1" source="N7uNGJhakCuLGw01cvrU-62" target="N7uNGJhakCuLGw01cvrU-73">
          <mxGeometry relative="1" as="geometry" />
        </mxCell>
        <mxCell id="N7uNGJhakCuLGw01cvrU-61" value="资金往来" style="text;html=1;align=center;verticalAlign=middle;resizable=0;points=[];labelBackgroundColor=#ffffff;" vertex="1" connectable="0" parent="N7uNGJhakCuLGw01cvrU-60">
          <mxGeometry x="-0.3143" y="1" relative="1" as="geometry">
            <mxPoint x="22" y="1" as="offset" />
          </mxGeometry>
        </mxCell>
        <mxCell id="N7uNGJhakCuLGw01cvrU-62" value="职位提供方" style="shape=ext;double=1;rounded=1;whiteSpace=wrap;html=1;fillColor=#d0cee2;strokeColor=#56517e;" vertex="1" parent="1">
          <mxGeometry x="50" y="880" width="120" height="80" as="geometry" />
        </mxCell>
        <mxCell id="N7uNGJhakCuLGw01cvrU-63" value="②⑦⑨审核" style="edgeStyle=none;rounded=0;orthogonalLoop=1;jettySize=auto;html=1;entryX=0.5;entryY=1;entryDx=0;entryDy=0;exitX=0.5;exitY=0;exitDx=0;exitDy=0;" edge="1" parent="1" source="N7uNGJhakCuLGw01cvrU-67" target="N7uNGJhakCuLGw01cvrU-58">
          <mxGeometry relative="1" as="geometry" />
        </mxCell>
        <mxCell id="N7uNGJhakCuLGw01cvrU-66" value="⑩发起转账" style="edgeStyle=none;rounded=0;orthogonalLoop=1;jettySize=auto;html=1;exitX=1;exitY=0.5;exitDx=0;exitDy=0;entryX=0.5;entryY=0;entryDx=0;entryDy=0;" edge="1" parent="1" source="N7uNGJhakCuLGw01cvrU-67" target="N7uNGJhakCuLGw01cvrU-73">
          <mxGeometry relative="1" as="geometry" />
        </mxCell>
        <mxCell id="N7uNGJhakCuLGw01cvrU-67" value="运营方" style="ellipse;whiteSpace=wrap;html=1;aspect=fixed;fillColor=#1ba1e2;strokeColor=#006EAF;fontColor=#ffffff;" vertex="1" parent="1">
          <mxGeometry x="160" y="730" width="80" height="80" as="geometry" />
        </mxCell>
        <mxCell id="N7uNGJhakCuLGw01cvrU-72" value="⑪收取佣金" style="edgeStyle=none;rounded=0;orthogonalLoop=1;jettySize=auto;html=1;entryX=0.5;entryY=1;entryDx=0;entryDy=0;" edge="1" parent="1" source="N7uNGJhakCuLGw01cvrU-73" target="N7uNGJhakCuLGw01cvrU-48">
          <mxGeometry relative="1" as="geometry" />
        </mxCell>
        <mxCell id="N7uNGJhakCuLGw01cvrU-73" value="财务系统" style="shape=ext;double=1;rounded=1;whiteSpace=wrap;html=1;fillColor=#d0cee2;strokeColor=#56517e;" vertex="1" parent="1">
          <mxGeometry x="310" y="880" width="120" height="80" as="geometry" />
        </mxCell>
        <mxCell id="N7uNGJhakCuLGw01cvrU-74" value="推人到公司上班" style="text;html=1;strokeColor=#b85450;fillColor=#f8cecc;align=center;verticalAlign=middle;whiteSpace=wrap;rounded=0;gradientColor=#ea6b66;" vertex="1" parent="1">
          <mxGeometry x="340" y="500" width="100" height="20" as="geometry" />
        </mxCell>
        <mxCell id="N7uNGJhakCuLGw01cvrU-75" value="上传简历" style="text;html=1;strokeColor=#b85450;fillColor=#f8cecc;align=center;verticalAlign=middle;whiteSpace=wrap;rounded=0;gradientColor=#ea6b66;" vertex="1" parent="1">
          <mxGeometry x="320" y="990" width="100" height="20" as="geometry" />
        </mxCell>
      </root>
    </mxGraphModel>
  </diagram>
</mxfile>
